<svg width="59" height="59" viewBox="0 0 59 59" fill="none" xmlns="http://www.w3.org/2000/svg"><path d="M49.781 40.284H9.22a.922.922 0 01-.872-.623L2.283 21.975a.923.923 0 011.018-1.209.92.92 0 01.788.548c.75 1.703 3.416 7.198 6.527 7.198l.117-.003c1.877-.084 4.811-2.249 8.136-12.086a.922.922 0 011.746 0c1.136 3.355 4.94 12.035 8.891 12.035h.032c1.873-.023 4.753-2.126 7.838-12.014a.922.922 0 01.88-.647h.009a.921.921 0 01.876.665c.943 3.246 4.286 11.749 8.387 12.104 2.396.197 5.052-2.514 7.675-7.87a.921.921 0 011.7.704l-6.25 18.26a.922.922 0 01-.872.624zM9.877 38.44h39.245l3.612-10.553c-1.746 1.847-3.518 2.671-5.366 2.516-4.542-.395-7.659-6.94-9.108-10.787-2.56 7.145-5.417 10.646-8.7 10.684l-.054.001c-4.59 0-8.133-7.036-9.738-10.917-2.739 7.227-5.678 10.82-8.953 10.967-1.68.065-3.141-.772-4.4-2.013L9.877 38.44z" fill="#A07B50" stroke="#1F1C1D" stroke-width=".8"/></svg>